<?xml version="1.0" encoding="utf-8"?>
<!-- Generator: Adobe Illustrator 23.0.5, SVG Export Plug-In . SVG Version: 6.00 Build 0)  -->
<svg version="1.1" id="Layer_1" xmlns="http://www.w3.org/2000/svg" xmlns:xlink="http://www.w3.org/1999/xlink" x="0px" y="0px"
	 viewBox="0 0 1066.8 390.7" style="enable-background:new 0 0 1066.8 390.7;" xml:space="preserve">
<style type="text/css">
	.st0{fill:#FF9400;}
	.st1{font-family:'Montserrat-SemiBold';}
	.st2{font-size:79.2px;}
	.st3{letter-spacing:-2;}
</style>
<g>
	<g id="Layer_1-2">
		<path class="st0" d="M915.7,137.6v28h43.6v18.1h-43.6v35.8h61.1v18.9h-85V118.7h85v18.9H915.7z M854.1,238.4l-37.5-51l-15,18.2
			v32.8h-23.9V118.7h23.9V176l45.7-57.3h27.3L832.4,171l50.3,67.4L854.1,238.4z M706.3,153.7L690,197.9h32.5L706.3,153.7z
			 M739.4,238.4l-9.9-24.3h-46.3l-9.4,24.3h-26.5L701,117h10.5l54.2,121.4L739.4,238.4z M558.6,238.4V118.7h23.9v100.8h60.7v18.9
			L558.6,238.4z"/>
		<text transform="matrix(1 0 0 1 487.74 325.9299)" class="st1 st2">V</text>
		<text transform="matrix(1 0 0 1 544.29 325.9299)" class="st1 st2">I</text>
		<text transform="matrix(1 0 0 1 569.55 325.9299)" class="st1 st2">S</text>
		<text transform="matrix(1 0 0 1 618.5801 325.9299)" class="st1 st2 st3">T</text>
		<text transform="matrix(1 0 0 1 663.48 325.9299)" class="st1 st2">A RANCH</text>
		<path d="M402.8,389.2h-27v-17.4c0-63.7-0.3-127.4,0.3-191c0.1-10.9-2.8-18.1-11.7-24.8c-50.5-37.9-100.6-76.3-150.5-115
			c-9.1-7.1-14.8-6.8-23.8,0.2C139.8,80.4,88.8,118.5,38.7,157.7c-5.4,4.2-9.8,13.4-9.9,20.3c-0.8,63.7-0.4,127.4-0.4,191v18
			c-25.8,7.3-28.2,5.5-28.2-19.1C0.2,300.6,0.4,233.3,0,166c-0.1-10.3,2.9-17,11.3-23.4c60.3-45.5,120.3-91.5,180-137.8
			c7.9-6.1,13.1-6.5,21.3-0.2c60.6,46.9,121.6,93.2,182.1,140.1c4.6,3.6,9,10.6,9.1,16.1c0.6,74,0.4,148.1,0.3,222.1
			C404.1,384.4,403.5,385.9,402.8,389.2z"/>
		<path class="st0" d="M291.2,223.1c8.9,46.7-10.1,95.4,12.5,139.9l6.4,1c3.5-12.2,9.4-24.4,10-36.7c1.4-33.6,0.5-67.2,0.5-100.8
			c0-22,2.1-24.4,28.2-29.9V232c0,20.2-1.4,40.5,0.3,60.5c2.8,31.7-4.4,60.5-21.1,87c-3.1,4.9-10.4,9.5-16.1,10
			c-9.3,0.8-19.1,3.7-26.9-8.5c-15.1-23.5-23.2-47.5-20.2-75.6c1.6-15.3,0.3-31,0.3-46.5C264.9,232.8,264.9,232.8,291.2,223.1z"/>
		<path d="M346.3,178.8c-23.7,15.1-23.7,15.1-44.7-0.9c-29.6-22.6-59.4-45-88.7-68c-7.8-6.2-13.1-6.6-21.2-0.2
			c-29.6,23.4-60,46-90,68.9c-21,16-21,16-44.5-0.9c26.9-20.7,53.4-41.2,79.9-61.6c18.9-14.5,37.6-29.2,57.1-42.9
			c3.7-2.6,12.2-3,15.5-0.5c44.8,33.5,89,67.7,133.3,101.7C344,175.2,344.7,176.7,346.3,178.8z"/>
		<path class="st0" d="M56.7,195.6C84,204.8,84,204.8,84,229.9v133.5c12.8,1,24.5,1.8,36.2,2.7c19.5,1.5,19.5,1.5,17,22.7H56.7
			V195.6z"/>
		<path d="M292.5,205.5c-25.8,15.8-25.8,15.8-46.2-0.1c-11.4-8.9-23.3-17.3-34.3-26.6c-7.3-6.2-12.9-5.9-20.1,0.3
			c-11,9.4-23.1,17.5-34.4,26.5c-20.5,16.2-20.4,16.3-45.6-0.2c22.4-17.3,44.2-34.3,66.2-51.1c23.8-18.1,23.9-18.1,48,0.1
			C247.9,170.9,269.4,187.7,292.5,205.5z"/>
	</g>
</g>
</svg>
