<svg xmlns="http://www.w3.org/2000/svg" viewBox="0 0 1066.79 390.74"><defs><style>.cls-1{fill:#ff9400;}.cls-2{font-size:79.2px;font-family:Montserrat-SemiBold, Montserrat;font-weight:600;}.cls-2,.cls-6{fill:#fff;}.cls-3{letter-spacing:-0.01em;}.cls-4{letter-spacing:-0.01em;}.cls-5{letter-spacing:-0.03em;}</style></defs><g id="Layer_2" data-name="Layer 2"><g id="Layer_1-2" data-name="Layer 1"><path class="cls-1" d="M915.74,137.62v28h43.63v18.09H915.74v35.84h61.12v18.93h-85V118.69h85v18.93ZM854.11,238.45l-37.49-51-15,18.22v32.78H777.76V118.69h23.88V176l45.7-57.34h27.27L832.42,171l50.27,67.44ZM706.32,153.7l-16.27,44.22h32.51Zm33.1,84.75-9.87-24.29H683.22l-9.43,24.29H647.27L701.05,117h10.54l54.16,121.44Zm-180.77,0V118.69h23.89V219.52h60.74v18.93Z"/><text class="cls-2" transform="translate(487.74 325.93)"><tspan class="cls-3">V</tspan><tspan x="56.55" y="0">I</tspan><tspan class="cls-4" x="81.81" y="0">S</tspan><tspan class="cls-5" x="130.84" y="0">T</tspan><tspan x="175.74" y="0">A RANCH</tspan></text><path class="cls-6" d="M402.81,389.21h-27V371.85c0-63.69-.25-127.37.25-191,.08-10.87-2.79-18.1-11.66-24.76q-75.71-56.91-150.53-115c-9.09-7.07-14.84-6.8-23.84.2C139.8,80.36,88.81,118.5,38.68,157.73c-5.41,4.24-9.77,13.38-9.85,20.3-.75,63.67-.44,127.36-.44,191V387C2.62,394.27.2,392.51.19,367.87.19,300.57.38,233.26,0,166c-.06-10.28,2.88-17,11.34-23.39q90.43-68.32,180-137.79c7.91-6.12,13.14-6.52,21.26-.22,60.55,46.91,121.58,93.2,182.1,140.15,4.57,3.55,9.05,10.62,9.1,16.09.57,74,.36,148.07.29,222.11C404.1,384.38,403.52,385.86,402.81,389.21Z"/><path class="cls-1" d="M291.18,223.14c8.91,46.74-10.13,95.45,12.52,139.92l6.35,1c3.48-12.24,9.43-24.37,9.95-36.72,1.39-33.56.46-67.22.48-100.84,0-22,2.11-24.4,28.16-29.85V232c0,20.17-1.44,40.47.33,60.48,2.8,31.72-4.42,60.54-21.12,87-3.11,4.93-10.4,9.52-16.1,10-9.32.75-19.1,3.68-26.94-8.52-15.09-23.49-23.22-47.48-20.24-75.62,1.63-15.34.29-31,.29-46.52C264.86,232.77,264.86,232.77,291.18,223.14Z"/><path class="cls-6" d="M346.25,178.79c-23.69,15.06-23.72,15.1-44.72-.91-29.64-22.59-59.44-45-88.72-68-7.83-6.18-13.15-6.57-21.23-.18-29.65,23.41-60,46-90,68.91-21,16-21,16-44.53-.94,26.88-20.72,53.36-41.19,79.9-61.57,18.89-14.49,37.61-29.24,57.07-42.93,3.66-2.57,12.19-3,15.54-.51,44.75,33.49,89,67.67,133.31,101.73C344,175.23,344.68,176.7,346.25,178.79Z"/><path class="cls-1" d="M56.69,195.62C84,204.81,84,204.81,84,229.85V363.4c12.84,1,24.52,1.81,36.2,2.7,19.46,1.49,19.48,1.51,17,22.66H56.69Z"/><path class="cls-6" d="M292.54,205.51c-25.8,15.84-25.78,15.82-46.23-.07C234.88,196.55,223,188.16,212,178.82c-7.34-6.2-12.9-5.87-20.13.28-11,9.37-23.05,17.52-34.41,26.49-20.46,16.16-20.39,16.25-45.57-.22,22.41-17.31,44.22-34.32,66.2-51.08,23.75-18.12,23.92-18.14,48,.15C247.91,170.93,269.44,187.72,292.54,205.51Z"/></g></g></svg>